<!-- Generator: Adobe Illustrator 24.1.1, SVG Export Plug-In  -->
<svg version="1.1" xmlns="http://www.w3.org/2000/svg" xmlns:xlink="http://www.w3.org/1999/xlink" x="0px" y="0px" width="91px"
	 height="91px" viewBox="0 0 91 91" style="enable-background:new 0 0 91 91;" xml:space="preserve">
<style type="text/css">
	.st0{fill:#FFF200;stroke:#000000;stroke-miterlimit:10;}
</style>
<defs>
</defs>
<g>
	<path class="st0" d="M28.5,40.5h-16c-6.6,0-12-5.4-12-12v-16c0-6.6,5.4-12,12-12h16c6.6,0,12,5.4,12,12v16
		C40.5,35.1,35.1,40.5,28.5,40.5z"/>
	<path class="st0" d="M28.5,90.5h-16c-6.6,0-12-5.4-12-12v-16c0-6.6,5.4-12,12-12h16c6.6,0,12,5.4,12,12v16
		C40.5,85.1,35.1,90.5,28.5,90.5z"/>
	<path class="st0" d="M78.5,90.5h-16c-6.6,0-12-5.4-12-12v-16c0-6.6,5.4-12,12-12h16c6.6,0,12,5.4,12,12v16
		C90.5,85.1,85.1,90.5,78.5,90.5z"/>
	<path class="st0" d="M78.5,40.5h-16c-6.6,0-12-5.4-12-12v-16c0-6.6,5.4-12,12-12h16c6.6,0,12,5.4,12,12v16
		C90.5,35.1,85.1,40.5,78.5,40.5z"/>
</g>
</svg>
