<svg xmlns="http://www.w3.org/2000/svg" viewBox="0 0 50.93 71"><defs><style>.cls-1{fill:#fff200;stroke:#231f20;stroke-miterlimit:10;}</style></defs><g id="Layer_2" data-name="Layer 2"><g id="Layer_1-2" data-name="Layer 1"><path class="cls-1" d="M24,.54A25.1,25.1,0,0,0,.55,23a1.79,1.79,0,0,0,0,.23A6.73,6.73,0,0,0,7.28,30.5h0A3.21,3.21,0,0,0,10.5,27a14.89,14.89,0,0,1,.06-3.46,15,15,0,0,1,29.87,2,14.81,14.81,0,0,1-.88,5L26.62,43.43a4.14,4.14,0,0,0,2.93,7.07h.88l16.7-17.13a11.36,11.36,0,0,0,3.3-7.82V25.5A25,25,0,0,0,24,.54Z"/><rect class="cls-1" x="19.55" y="60.5" width="10" height="10" rx="5"/></g></g></svg>