<svg xmlns="http://www.w3.org/2000/svg" viewBox="0 0 91 91"><defs><style>.cls-1{fill:#fff200;stroke:#231f20;stroke-miterlimit:10;}</style></defs><g id="Layer_2" data-name="Layer 2"><g id="Layer_1-2" data-name="Layer 1"><path class="cls-1" d="M85.5,20.5a5,5,0,0,1-5-5V5.5a5,5,0,0,0-5-5h-10a5,5,0,0,0-5,5v10a5,5,0,0,0,5,5,5,5,0,0,1,5,5v10a5,5,0,0,1-5,5A5,5,0,0,0,61,43.39,19.48,19.48,0,0,0,50.79,40.5H40.21A19.48,19.48,0,0,0,30,43.39,5,5,0,0,0,25.5,40.5a5,5,0,0,1-5-5v-10a5,5,0,0,1,5-5,5,5,0,0,0,5-5V5.5a5,5,0,0,0-5-5h-10a5,5,0,0,0-5,5v10a5,5,0,0,1-5,5,5,5,0,0,0-5,5v10a5,5,0,0,0,5,5,5,5,0,0,1,5,5v10a5,5,0,0,0,5,5h5V70.79A19.77,19.77,0,0,0,40.21,90.5H50.79A19.77,19.77,0,0,0,70.5,70.79V60.5h5a5,5,0,0,0,5-5v-10a5,5,0,0,1,5-5,5,5,0,0,0,5-5v-10A5,5,0,0,0,85.5,20.5Zm-40,60a15,15,0,1,1,15-15A15,15,0,0,1,45.5,80.5Z"/></g></g></svg>