<svg xmlns="http://www.w3.org/2000/svg" viewBox="0 0 121.53 141.01"><defs><style>.cls-1{fill:#fff200;stroke:#231f20;stroke-miterlimit:10;}</style></defs><g id="Layer_2" data-name="Layer 2"><g id="Layer_1-2" data-name="Layer 1"><path class="cls-1" d="M80,70.51h-.67c10.85-14,9.11-32,9-32.78A8.39,8.39,0,0,0,79,30.56a8.15,8.15,0,0,0-7.62,8.72C71.41,39.6,72.64,54,64,62.9a21.38,21.38,0,0,1-3.21,2.69,21.81,21.81,0,0,1-3.2-2.69C48.89,54,50.12,39.6,50.15,39.28a8.15,8.15,0,0,0-7.62-8.72,8.39,8.39,0,0,0-9.31,7.16c-.09.81-1.83,18.75,9,32.78h-.67"/><path class="cls-1" d="M120.83,18.52C120.24,7.53,115-.5,109,.61S98.79,11.46,99.36,22.42c0,.72,1.35,31.27-7,53.53A40,40,0,0,0,29.2,76c-8.38-22.27-7.06-52.81-7-53.53C22.74,11.46,18.42,1.7,12.5.6S1.29,7.52.7,18.51C.58,20.69-2,72.35,15.49,108.14,26,129.62,40.94,140.5,60,140.5h.14l.64,0,.6,0,.19,0c19,0,34-10.89,44.49-32.36C123.51,72.35,121,20.7,120.83,18.52Zm-60.07,112a25,25,0,1,1,25-25A25,25,0,0,1,60.76,130.5Z"/><circle class="cls-1" cx="60.76" cy="105.51" r="15"/></g></g></svg>