<svg xmlns="http://www.w3.org/2000/svg" viewBox="0 0 91 151"><defs><style>.cls-1{fill:#fff200;stroke:#231f20;stroke-miterlimit:10;}</style></defs><g id="Layer_2" data-name="Layer 2"><g id="Layer_1-2" data-name="Layer 1"><path class="cls-1" d="M85.5,80.5a5,5,0,0,1-5-5v-10a5,5,0,0,0-5-5h-10a5,5,0,0,0-5,5v10a5,5,0,0,0,5,5,5,5,0,0,1,5,5v10a5,5,0,0,1-5,5A5,5,0,0,0,61,103.39a19.48,19.48,0,0,0-10.19-2.89H40.21A19.48,19.48,0,0,0,30,103.39a5,5,0,0,0-4.52-2.89,5,5,0,0,1-5-5v-10a5,5,0,0,1,5-5,5,5,0,0,0,5-5v-10a5,5,0,0,0-5-5h-10a5,5,0,0,0-5,5v10a5,5,0,0,1-5,5,5,5,0,0,0-5,5v10a5,5,0,0,0,5,5,5,5,0,0,1,5,5v10a5,5,0,0,0,5,5h5v10.29A19.77,19.77,0,0,0,40.21,150.5H50.79A19.77,19.77,0,0,0,70.5,130.79V120.5h5a5,5,0,0,0,5-5v-10a5,5,0,0,1,5-5,5,5,0,0,0,5-5v-10A5,5,0,0,0,85.5,80.5Zm-40,60a15,15,0,1,1,15-15A15,15,0,0,1,45.5,140.5Z"/><circle class="cls-1" cx="35.5" cy="125.5" r="5"/><rect class="cls-1" x="40.5" y="0.5" width="10" height="40" rx="5"/><rect class="cls-1" x="40.5" y="50.5" width="10" height="10" rx="5"/></g></g></svg>