<svg xmlns="http://www.w3.org/2000/svg" viewBox="0 0 189.83 189.83"><defs><style>.cls-1{fill:#fff200;stroke:#231f20;stroke-miterlimit:10;}</style></defs><g id="Layer_2" data-name="Layer 2"><g id="Layer_1-2" data-name="Layer 1"><path class="cls-1" d="M9.68,42.6A100.56,100.56,0,0,1,42.6,9.68a4.94,4.94,0,0,0,2.32-4.21h0a5,5,0,0,0-7.65-4.2,110.77,110.77,0,0,0-36,36,5,5,0,0,0,4.2,7.65h0A4.94,4.94,0,0,0,9.68,42.6Z"/><path class="cls-1" d="M147.24,9.68A100.53,100.53,0,0,1,180.15,42.6a5,5,0,0,0,4.21,2.32h0a5,5,0,0,0,4.21-7.65,110.87,110.87,0,0,0-36-36,5,5,0,0,0-7.65,4.2h0A4.91,4.91,0,0,0,147.24,9.68Z"/><path class="cls-1" d="M180.15,147.24a100.5,100.5,0,0,1-32.91,32.91,4.93,4.93,0,0,0-2.32,4.21h0a5,5,0,0,0,7.65,4.21,111,111,0,0,0,36-36,5,5,0,0,0-4.21-7.65h0A4.93,4.93,0,0,0,180.15,147.24Z"/><path class="cls-1" d="M42.6,180.15A100.53,100.53,0,0,1,9.68,147.24a4.91,4.91,0,0,0-4.21-2.32h0a5,5,0,0,0-4.2,7.65,110.87,110.87,0,0,0,36,36,5,5,0,0,0,7.65-4.21h0A5,5,0,0,0,42.6,180.15Z"/></g></g></svg>