<svg xmlns="http://www.w3.org/2000/svg" viewBox="0 0 248.58 265.82"><defs><style>.cls-1{fill:#fff200;stroke:#231f20;stroke-miterlimit:10;}</style></defs><g id="Layer_2" data-name="Layer 2"><g id="Layer_1-2" data-name="Layer 1"><path class="cls-1" d="M.5,137.91c1.28,10.94,5,21.89,9.09,32.1A179.4,179.4,0,0,0,25,200.16c.12.19.24.38.37.57-8.66,5.08-10.38,18.81-3.26,25.87s20.84,5.23,25.85-3.47a129.22,129.22,0,0,0,51.71,21.49c-2.53,9.74,5.94,20.7,16,20.7s18.54-10.95,16-20.69a128.72,128.72,0,0,0,51.68-21.47c5,8.71,18.81,10.51,25.93,3.4s5.33-20.88-3.37-25.94a129.22,129.22,0,0,0,21.48-51.68c9.74,2.52,20.69-5.95,20.7-16s-11-18.54-20.69-16a128.76,128.76,0,0,0-21.47-51.69c8.71-5.05,10.51-18.81,3.39-25.93S188.44,34,183.38,42.67A129,129,0,0,0,131.69,21.2c2.53-9.74-5.94-20.7-16-20.7s-18.53,11-16,20.68A129.22,129.22,0,0,0,47.9,42.7C43,33.94,29.32,32,22.19,39s-5.34,20.78,3.34,25.76c-1.4-.81-14,26.63-15,29.19a154.47,154.47,0,0,0-8.61,32c-.6,3.83-1.12,7.94-1.38,11.91"/></g></g></svg>